<svg xmlns="http://www.w3.org/2000/svg" width="28.949" height="28.949" viewBox="0 0 28.949 28.949">
  <path d="M8.693,6.217a19.8,19.8,0,0,0,.724,4.165l-1.93,1.93a23.844,23.844,0,0,1-1.222-6.1H8.693M24.551,25.548a20.51,20.51,0,0,0,4.182.724v2.4a24.81,24.81,0,0,1-6.112-1.206l1.93-1.914M10.237,3H4.608A1.613,1.613,0,0,0,3,4.608,27.339,27.339,0,0,0,30.341,31.949a1.613,1.613,0,0,0,1.608-1.608V24.728a1.613,1.613,0,0,0-1.608-1.608A18.346,18.346,0,0,1,24.6,22.2a1.35,1.35,0,0,0-.5-.08,1.647,1.647,0,0,0-1.142.466l-3.538,3.538a24.363,24.363,0,0,1-10.6-10.6L12.36,11.99a1.614,1.614,0,0,0,.4-1.64,18.271,18.271,0,0,1-.917-5.742A1.613,1.613,0,0,0,10.237,3Z" transform="translate(-3 -3)" fill="#fff"/>
</svg>
