<svg xmlns="http://www.w3.org/2000/svg" width="30.687" height="35.071"><path d="M0 31.783a3.289 3.289 0 003.288 3.288H27.4a3.289 3.289 0 003.288-3.288V13.152H0zm21.92-13.425a.824.824 0 01.822-.822h2.74a.824.824 0 01.822.822V21.1a.824.824 0 01-.822.822h-2.74a.824.824 0 01-.822-.822zm0 8.768a.824.824 0 01.822-.822h2.74a.824.824 0 01.822.822v2.74a.824.824 0 01-.822.822h-2.74a.824.824 0 01-.822-.822zm-8.768-8.768a.824.824 0 01.822-.822h2.74a.824.824 0 01.822.822V21.1a.824.824 0 01-.822.822h-2.74a.824.824 0 01-.822-.822zm0 8.768a.824.824 0 01.822-.822h2.74a.824.824 0 01.822.822v2.74a.824.824 0 01-.822.822h-2.74a.824.824 0 01-.822-.822zm-8.768-8.768a.824.824 0 01.822-.822h2.74a.824.824 0 01.822.822V21.1a.824.824 0 01-.822.822h-2.74a.824.824 0 01-.822-.822zm0 8.768a.824.824 0 01.822-.822h2.74a.824.824 0 01.822.822v2.74a.824.824 0 01-.822.822h-2.74a.824.824 0 01-.822-.822zM27.4 4.384h-3.288V1.1a1.1 1.1 0 00-1.1-1.1h-2.188a1.1 1.1 0 00-1.1 1.1v3.284H10.96V1.1A1.1 1.1 0 009.864 0H7.672a1.1 1.1 0 00-1.1 1.1v3.284H3.288A3.289 3.289 0 000 7.672v3.288h30.687V7.672A3.289 3.289 0 0027.4 4.384z"/></svg>
