<svg xmlns="http://www.w3.org/2000/svg" width="21.947" height="19.959" viewBox="0 0 21.947 19.959">
  <path d="M23.653,5.985a2.138,2.138,0,0,0-.693.164c-.211.085-1.427.6-3.223,1.372s-4.13,1.767-6.444,2.759c-4.628,1.983-9.175,3.934-9.175,3.934l.033-.013a2.435,2.435,0,0,0-.553.286,1.536,1.536,0,0,0-.411.4,1.071,1.071,0,0,0-.178.715,1.577,1.577,0,0,0,1.114,1.233l0,0L8.57,18.361c.113.378,1.348,4.5,1.619,5.37a2.978,2.978,0,0,0,.437.95.924.924,0,0,0,.235.222.651.651,0,0,0,.1.052h0l.013,0-.012,0c.008,0,.016.009.024.012a.354.354,0,0,0,.046.01,1.05,1.05,0,0,0,.93-.152l.018-.014,2.73-2.532,4.43,3.454.056.025a1.794,1.794,0,0,0,1.865-.164,1.9,1.9,0,0,0,.541-.723l.017-.043L24.878,7.864a2.117,2.117,0,0,0,.017-1,1.166,1.166,0,0,0-.509-.7A1.292,1.292,0,0,0,23.653,5.985ZM23.679,7a.457.457,0,0,1,.195.02c.023.014.033.012.056.1a1.227,1.227,0,0,1-.026.535l0,.006L20.665,24.524a.839.839,0,0,1-.229.3c-.157.128-.332.228-.8.033L14.8,21.078l-.136-.107,0,0-1.449-1.087,8.141-9.578a.5.5,0,0,0-.657-.739L8.912,17.423,4.462,15.9S4.02,15.653,4,15.482c0-.009-.006,0,.017-.035a.655.655,0,0,1,.153-.142,1.568,1.568,0,0,1,.31-.162l.017-.006.017-.007s4.548-1.951,9.175-3.934L20.13,8.439c1.795-.767,3.092-1.32,3.2-1.364A1.087,1.087,0,0,1,23.679,7Zm-5.4,5.377-6.174,7.264,0,0q-.014.017-.027.036a.51.51,0,0,0-.093.234s0,0,0,0l-.8,3.617c-.013-.039-.023-.053-.037-.1h0c-.255-.821-1.42-4.706-1.581-5.244ZM12.8,20.831l1.109.833-1.63,1.511Z" transform="translate(-3.001 -5.983)"/>
</svg>
