<svg xmlns="http://www.w3.org/2000/svg" width="17.862" height="17.855" viewBox="0 0 17.862 17.855">
  <g>
    <path d="M13.99,11.82a1.777,1.777,0,0,0,1.562-.92l3.2-5.794a.889.889,0,0,0-.777-1.321H4.759L3.919,2H1V3.786H2.786L6,10.562,4.794,12.74a1.789,1.789,0,0,0,1.562,2.652H17.07V13.606H6.357l.982-1.786ZM5.607,5.571H16.454L13.99,10.035H7.723Z" transform="translate(-1 -2)" fill="#fff"/>
    <path d="M6.787,18a1.786,1.786,0,1,0,1.786,1.786A1.783,1.783,0,0,0,6.787,18Z" transform="translate(-1.43 -3.716)" fill="#fff"/>
    <path d="M16.787,18a1.786,1.786,0,1,0,1.786,1.786A1.783,1.783,0,0,0,16.787,18Z" transform="translate(-2.502 -3.716)" fill="#fff"/>
  </g>
</svg>
