<svg xmlns="http://www.w3.org/2000/svg" width="17.347" height="17.343"><path d="M8.675 4.225a4.446 4.446 0 104.446 4.446 4.439 4.439 0 00-4.446-4.446zm0 7.337a2.891 2.891 0 112.891-2.891 2.9 2.9 0 01-2.891 2.891zm5.665-7.519a1.037 1.037 0 11-1.035-1.037 1.035 1.035 0 011.035 1.037zm2.945 1.052a5.132 5.132 0 00-1.4-3.634 5.166 5.166 0 00-3.634-1.4c-1.432-.081-5.724-.081-7.155 0a5.159 5.159 0 00-3.634 1.401 5.149 5.149 0 00-1.4 3.634c-.081 1.432-.081 5.724 0 7.155a5.132 5.132 0 001.4 3.634 5.173 5.173 0 003.634 1.4c1.432.081 5.724.081 7.155 0a5.132 5.132 0 003.634-1.4 5.166 5.166 0 001.4-3.634c.081-1.432.081-5.72 0-7.151zm-1.85 8.688a2.927 2.927 0 01-1.649 1.649c-1.142.453-3.85.348-5.112.348s-3.974.1-5.112-.348a2.927 2.927 0 01-1.649-1.649c-.453-1.142-.348-3.85-.348-5.112s-.1-3.974.348-5.112a2.927 2.927 0 011.65-1.649c1.142-.448 3.85-.348 5.112-.348s3.974-.1 5.112.348a2.927 2.927 0 011.649 1.652c.453 1.142.348 3.85.348 5.112s.104 3.971-.348 5.109z"/></svg>
