<svg xmlns="http://www.w3.org/2000/svg" width="20.255" height="22.184" viewBox="0 0 20.255 22.184">
  <path d="M13.85,3a17.169,17.169,0,0,0-1.982.124A12.459,12.459,0,0,0,8.127,4.1,6.1,6.1,0,0,0,4.444,8.658c-.168.919-.3,1.852-.381,2.79a15.09,15.09,0,0,0,.46,5.444A5.888,5.888,0,0,0,6.993,20.4a11.818,11.818,0,0,0,1.671.7.387.387,0,0,1,.139.089c.006.006.021.019.019.132-.013,1.153,0,3.383,0,3.383l0,.48h.861l.139-.136s2.187-2.1,2.978-2.971c.143-.154.217-.241.232-.251s-.009-.015.138-.019q1.557-.031,3.11-.117a12.134,12.134,0,0,0,4.1-.765,5.148,5.148,0,0,0,2.73-2.479,10.858,10.858,0,0,0,1.045-3.866A18.466,18.466,0,0,0,23.666,7.9a5.573,5.573,0,0,0-2.215-3.161,10,10,0,0,0-4.335-1.49,22.417,22.417,0,0,0-2.609-.239C14.289,3,14.07,3,13.85,3Zm.631.972a20.694,20.694,0,0,1,2.494.228A9.1,9.1,0,0,1,20.9,5.531a4.538,4.538,0,0,1,1.833,2.624,17.519,17.519,0,0,1,.456,6.341,9.857,9.857,0,0,1-.951,3.525,4.094,4.094,0,0,1-2.236,2.016,11.283,11.283,0,0,1-3.775.691q-1.537.085-3.078.115a1.227,1.227,0,0,0-.689.205,2.3,2.3,0,0,0-.371.375c-.565.618-1.692,1.7-2.306,2.3,0-.72-.009-1.59,0-2.392a1.179,1.179,0,0,0-.194-.7,1.268,1.268,0,0,0-.522-.407c-.544-.252-1.256-.445-1.565-.639A4.863,4.863,0,0,1,5.45,16.625a14.121,14.121,0,0,1-.426-5.1c.075-.9.205-1.8.369-2.7a5.02,5.02,0,0,1,3.135-3.86,11.52,11.52,0,0,1,3.459-.891A16.489,16.489,0,0,1,14.481,3.972Zm.2,2.4a5.352,5.352,0,0,0-1.159.128.483.483,0,0,0,.215.942,4.257,4.257,0,0,1,5.092,5.094.482.482,0,1,0,.94.211,5.217,5.217,0,0,0-5.088-6.375Zm-4.811.966a.917.917,0,0,0-.245.021A2.081,2.081,0,0,0,7.858,9.325a2.122,2.122,0,0,0,.081.471,21.321,21.321,0,0,0,.893,2.087,15.234,15.234,0,0,0,7.737,6.883,1.53,1.53,0,0,0,1.221.036,2.778,2.778,0,0,0,1.345-1.1c.431-.706.437-1.2-.273-1.718-.465-.343-.923-.7-1.394-1.03-.718-.509-1.494-.6-2.029.3a.807.807,0,0,1-.105.121.821.821,0,0,1-.97.217,5.542,5.542,0,0,1-3.04-2.8,1.146,1.146,0,0,1,.426-1.71,2.365,2.365,0,0,0,.2-.164.774.774,0,0,0,.205-.985A7.711,7.711,0,0,0,10.51,7.643,1,1,0,0,0,9.873,7.342Zm4.8.48a3.706,3.706,0,0,0-.631.053.482.482,0,1,0,.162.949,2.937,2.937,0,0,1,.469-.038A2.817,2.817,0,0,1,17.5,11.612a2.938,2.938,0,0,1-.038.469.482.482,0,1,0,.949.162,3.706,3.706,0,0,0,.053-.631A3.8,3.8,0,0,0,14.677,7.822Zm-.068,1.447a.482.482,0,1,0,0,.964,1.44,1.44,0,0,1,1.447,1.447.482.482,0,1,0,.964,0A2.418,2.418,0,0,0,14.609,9.269Z" transform="translate(-4 -2.999)"/>
</svg>
