<?xml version="1.0" encoding="UTF-8"?><!DOCTYPE svg PUBLIC "-//W3C//DTD SVG 1.1//EN" "http://www.w3.org/Graphics/SVG/1.1/DTD/svg11.dtd"><svg xmlns="http://www.w3.org/2000/svg" xmlns:xlink="http://www.w3.org/1999/xlink"><symbol id="icon-arrow-bottom"><path d="M12 22l4-4h-3V3h-2v15H8z" fill="#fff"/><path d="M24 0v24H0V0z" fill="none"/></symbol><symbol id="icon-arrow-right-blue"><path d="M25.124 5.289L19.835 0v3.967H0v2.645h19.835v3.967z" fill="#007adc"/></symbol><symbol id="icon-arrow-right" viewBox="0 0 19 8">
  <path d="M22,12,18,8v3H3v2H18v3Z" transform="translate(-3 -8)" fill="#fff"/>
</symbol><symbol id="icon-calendar"><path d="M0 31.783a3.289 3.289 0 003.288 3.288H27.4a3.289 3.289 0 003.288-3.288V13.152H0zm21.92-13.425a.824.824 0 01.822-.822h2.74a.824.824 0 01.822.822V21.1a.824.824 0 01-.822.822h-2.74a.824.824 0 01-.822-.822zm0 8.768a.824.824 0 01.822-.822h2.74a.824.824 0 01.822.822v2.74a.824.824 0 01-.822.822h-2.74a.824.824 0 01-.822-.822zm-8.768-8.768a.824.824 0 01.822-.822h2.74a.824.824 0 01.822.822V21.1a.824.824 0 01-.822.822h-2.74a.824.824 0 01-.822-.822zm0 8.768a.824.824 0 01.822-.822h2.74a.824.824 0 01.822.822v2.74a.824.824 0 01-.822.822h-2.74a.824.824 0 01-.822-.822zm-8.768-8.768a.824.824 0 01.822-.822h2.74a.824.824 0 01.822.822V21.1a.824.824 0 01-.822.822h-2.74a.824.824 0 01-.822-.822zm0 8.768a.824.824 0 01.822-.822h2.74a.824.824 0 01.822.822v2.74a.824.824 0 01-.822.822h-2.74a.824.824 0 01-.822-.822zM27.4 4.384h-3.288V1.1a1.1 1.1 0 00-1.1-1.1h-2.188a1.1 1.1 0 00-1.1 1.1v3.284H10.96V1.1A1.1 1.1 0 009.864 0H7.672a1.1 1.1 0 00-1.1 1.1v3.284H3.288A3.289 3.289 0 000 7.672v3.288h30.687V7.672A3.289 3.289 0 0027.4 4.384z"/></symbol><symbol id="icon-catalog"><g transform="translate(-1433 -50)"><circle cx="2.5" cy="2.5" r="2.5" transform="translate(1433 50)"/><circle cx="2.5" cy="2.5" r="2.5" transform="translate(1442 50)"/><circle cx="2.5" cy="2.5" r="2.5" transform="translate(1451 50)"/><circle cx="2.5" cy="2.5" r="2.5" transform="translate(1433 59)"/><circle cx="2.5" cy="2.5" r="2.5" transform="translate(1442 59)"/><circle cx="2.5" cy="2.5" r="2.5" transform="translate(1451 59)"/><circle cx="2.5" cy="2.5" r="2.5" transform="translate(1433 68)"/><circle cx="2.5" cy="2.5" r="2.5" transform="translate(1442 68)"/><circle cx="2.5" cy="2.5" r="2.5" transform="translate(1451 68)"/></g></symbol><symbol id="icon-clip"><path d="M0 5.5A5.5 5.5 0 015.5 0H16a4 4 0 010 8H7.5a2.5 2.5 0 010-5H15v2H7.41c-.55 0-.55 1 0 1H16a2 2 0 000-4H5.5a3.5 3.5 0 000 7H15v2H5.5A5.5 5.5 0 010 5.5z"/></symbol><symbol id="icon-drop-down"><path d="M1.321 0l4.3 4.291L9.922 0l1.321 1.321-5.621 5.621L0 1.321z"/></symbol><symbol id="icon-instagram"><path d="M8.675 4.225a4.446 4.446 0 104.446 4.446 4.439 4.439 0 00-4.446-4.446zm0 7.337a2.891 2.891 0 112.891-2.891 2.9 2.9 0 01-2.891 2.891zm5.665-7.519a1.037 1.037 0 11-1.035-1.037 1.035 1.035 0 011.035 1.037zm2.945 1.052a5.132 5.132 0 00-1.4-3.634 5.166 5.166 0 00-3.634-1.4c-1.432-.081-5.724-.081-7.155 0a5.159 5.159 0 00-3.634 1.401 5.149 5.149 0 00-1.4 3.634c-.081 1.432-.081 5.724 0 7.155a5.132 5.132 0 001.4 3.634 5.173 5.173 0 003.634 1.4c1.432.081 5.724.081 7.155 0a5.132 5.132 0 003.634-1.4 5.166 5.166 0 001.4-3.634c.081-1.432.081-5.72 0-7.151zm-1.85 8.688a2.927 2.927 0 01-1.649 1.649c-1.142.453-3.85.348-5.112.348s-3.974.1-5.112-.348a2.927 2.927 0 01-1.649-1.649c-.453-1.142-.348-3.85-.348-5.112s-.1-3.974.348-5.112a2.927 2.927 0 011.65-1.649c1.142-.448 3.85-.348 5.112-.348s3.974-.1 5.112.348a2.927 2.927 0 011.649 1.652c.453 1.142.348 3.85.348 5.112s.104 3.971-.348 5.109z"/></symbol><symbol id="icon-mail"><path d="M18.539 1.854A1.859 1.859 0 0016.685 0H1.854A1.859 1.859 0 000 1.854v11.123a1.859 1.859 0 001.854 1.854h14.831a1.859 1.859 0 001.854-1.854zm-1.854 0L9.27 6.489 1.854 1.854zm0 11.123H1.854V3.708L9.27 8.343l7.416-4.635z"/></symbol><symbol id="icon-phone-connection" viewBox="0 0 28.949 28.949">
  <path d="M8.693,6.217a19.8,19.8,0,0,0,.724,4.165l-1.93,1.93a23.844,23.844,0,0,1-1.222-6.1H8.693M24.551,25.548a20.51,20.51,0,0,0,4.182.724v2.4a24.81,24.81,0,0,1-6.112-1.206l1.93-1.914M10.237,3H4.608A1.613,1.613,0,0,0,3,4.608,27.339,27.339,0,0,0,30.341,31.949a1.613,1.613,0,0,0,1.608-1.608V24.728a1.613,1.613,0,0,0-1.608-1.608A18.346,18.346,0,0,1,24.6,22.2a1.35,1.35,0,0,0-.5-.08,1.647,1.647,0,0,0-1.142.466l-3.538,3.538a24.363,24.363,0,0,1-10.6-10.6L12.36,11.99a1.614,1.614,0,0,0,.4-1.64,18.271,18.271,0,0,1-.917-5.742A1.613,1.613,0,0,0,10.237,3Z" transform="translate(-3 -3)" fill="#fff"/>
</symbol><symbol id="icon-phone-social"><path d="M16.5 12.011a11.1 11.1 0 01-3.425-.543.948.948 0 00-.98.233l-1.523 1.911a14.731 14.731 0 01-6.681-6.626l1.891-1.611a.99.99 0 00.233-.99A10.82 10.82 0 015.472.96.969.969 0 004.511 0H1.155C.631 0 0 .233 0 .961a16.641 16.641 0 0016.5 16.5 1.018 1.018 0 00.961-1.145v-3.344a.969.969 0 00-.961-.961z"/></symbol><symbol id="icon-phone"><path d="M18.818 13.7a12.659 12.659 0 01-3.905-.62 1.081 1.081 0 00-1.117.266l-1.737 2.179a16.8 16.8 0 01-7.622-7.556l2.156-1.84A1.129 1.129 0 006.859 5a12.338 12.338 0 01-.62-3.9A1.1 1.1 0 005.144 0H1.316C.719 0 0 .266 0 1.1a18.975 18.975 0 0018.818 18.813 1.161 1.161 0 001.1-1.305v-3.817a1.1 1.1 0 00-1.1-1.091z"/></symbol><symbol id="icon-pin"><path d="M12.113 35.274C1.9 20.463 0 18.943 0 13.5a13.5 13.5 0 0127 0c0 5.443-1.9 6.963-12.113 21.774a1.688 1.688 0 01-2.775 0zM13.5 19.125A5.625 5.625 0 107.875 13.5a5.625 5.625 0 005.625 5.625z" fill="#007adc"/></symbol><symbol id="icon-popup-close"><g fill="none" stroke="#007adc"><path d="M24.354.354l-24 24"/><path d="M.354.354l24 24"/></g></symbol><symbol id="icon-product-cart" viewBox="0 0 17.862 17.855">
  <g>
    <path d="M13.99,11.82a1.777,1.777,0,0,0,1.562-.92l3.2-5.794a.889.889,0,0,0-.777-1.321H4.759L3.919,2H1V3.786H2.786L6,10.562,4.794,12.74a1.789,1.789,0,0,0,1.562,2.652H17.07V13.606H6.357l.982-1.786ZM5.607,5.571H16.454L13.99,10.035H7.723Z" transform="translate(-1 -2)" fill="#fff"/>
    <path d="M6.787,18a1.786,1.786,0,1,0,1.786,1.786A1.783,1.783,0,0,0,6.787,18Z" transform="translate(-1.43 -3.716)" fill="#fff"/>
    <path d="M16.787,18a1.786,1.786,0,1,0,1.786,1.786A1.783,1.783,0,0,0,16.787,18Z" transform="translate(-2.502 -3.716)" fill="#fff"/>
  </g>
</symbol><symbol id="icon-review" viewBox="0 0 20 20">
  <g transform="translate(-2 -2)">
    <g>
      <path d="M20,2H4A2.006,2.006,0,0,0,2,4V22l4-4H20a2.006,2.006,0,0,0,2-2V4A2.006,2.006,0,0,0,20,2Zm0,14H5.17L4,17.17V4H20Z" fill="#fff"/>
      <rect width="2" height="2" transform="translate(7 9)" fill="#fff"/>
      <rect width="2" height="2" transform="translate(15 9)" fill="#fff"/>
      <rect width="2" height="2" transform="translate(11 9)" fill="#fff"/>
    </g>
  </g>
</symbol><symbol id="icon-scroll-down"><g transform="translate(-947 -963)"><g transform="translate(947 963)" fill="none" stroke="#fff" stroke-width="2"><rect width="30" height="43" rx="15" stroke="none"/><rect x="1" y="1" width="28" height="41" rx="14"/></g><rect width="3" height="10" rx="1.5" transform="translate(960 969)" fill="#fff"/></g></symbol><symbol id="icon-search-dropdown"><path d="M24.562 21.532l-4.849-4.849a1.166 1.166 0 00-.827-.34h-.793a10.112 10.112 0 10-1.751 1.751v.793a1.166 1.166 0 00.34.827l4.849 4.849a1.162 1.162 0 001.649 0l1.376-1.376a1.173 1.173 0 00.006-1.655zm-14.445-5.19a6.226 6.226 0 116.226-6.226 6.222 6.222 0 01-6.226 6.226z"/></symbol><symbol id="icon-search"><path d="M12.5 11h-.79l-.28-.27a6.51 6.51 0 10-.7.7l.27.28v.79l5 4.99L17.49 16zm-6 0A4.5 4.5 0 1111 6.5 4.494 4.494 0 016.5 11z"/></symbol><symbol id="icon-size"><g clip-path="url(#clip-path)"><path d="M19.011 3.802l2.915 2.915-3.663 3.638 1.8 1.8 3.639-3.663 2.914 2.91v-7.6zm-15.209 7.6l2.915-2.91 3.638 3.663 1.8-1.8-3.663-3.638 2.91-2.915h-7.6zm7.6 15.209l-2.91-2.909 3.663-3.638-1.8-1.8-3.638 3.662-2.915-2.915v7.6zm15.209-7.6l-2.909 2.915-3.638-3.663-1.8 1.8 3.662 3.639-2.915 2.915h7.6z"/></g></symbol><symbol id="icon-slick-arrow-next" viewBox="0 0 21.61 34.996">
  <path d="M8,36.884,21.357,23.5,8,10.112,12.112,6l17.5,17.5L12.112,41Z" transform="translate(-8 -6)" fill="#007adc"/>
</symbol><symbol id="icon-slick-arrow-prev" viewBox="0 0 21.61 34.996">
  <path d="M29.61,36.884,16.253,23.5,29.61,10.112,25.5,6,8,23.5,25.5,41Z" transform="translate(-8 -6)" fill="#007adc"/>
</symbol><symbol id="icon-telegram-connection" viewBox="0 0 31.497 26.415">
  <path d="M31.409,6.933,26.655,29.348c-.359,1.582-1.294,1.976-2.623,1.23l-7.242-5.337L13.3,28.6a1.819,1.819,0,0,1-1.455.71l.52-7.376L25.784,9.809c.584-.52-.127-.809-.907-.288L8.283,19.969,1.139,17.733c-1.554-.485-1.582-1.554.323-2.3L29.4,4.669c1.294-.485,2.426.288,2,2.264Z" transform="translate(-0.001 -4.528)" fill="#fff"/>
</symbol><symbol id="icon-telegram" viewBox="0 0 21.947 19.959">
  <path d="M23.653,5.985a2.138,2.138,0,0,0-.693.164c-.211.085-1.427.6-3.223,1.372s-4.13,1.767-6.444,2.759c-4.628,1.983-9.175,3.934-9.175,3.934l.033-.013a2.435,2.435,0,0,0-.553.286,1.536,1.536,0,0,0-.411.4,1.071,1.071,0,0,0-.178.715,1.577,1.577,0,0,0,1.114,1.233l0,0L8.57,18.361c.113.378,1.348,4.5,1.619,5.37a2.978,2.978,0,0,0,.437.95.924.924,0,0,0,.235.222.651.651,0,0,0,.1.052h0l.013,0-.012,0c.008,0,.016.009.024.012a.354.354,0,0,0,.046.01,1.05,1.05,0,0,0,.93-.152l.018-.014,2.73-2.532,4.43,3.454.056.025a1.794,1.794,0,0,0,1.865-.164,1.9,1.9,0,0,0,.541-.723l.017-.043L24.878,7.864a2.117,2.117,0,0,0,.017-1,1.166,1.166,0,0,0-.509-.7A1.292,1.292,0,0,0,23.653,5.985ZM23.679,7a.457.457,0,0,1,.195.02c.023.014.033.012.056.1a1.227,1.227,0,0,1-.026.535l0,.006L20.665,24.524a.839.839,0,0,1-.229.3c-.157.128-.332.228-.8.033L14.8,21.078l-.136-.107,0,0-1.449-1.087,8.141-9.578a.5.5,0,0,0-.657-.739L8.912,17.423,4.462,15.9S4.02,15.653,4,15.482c0-.009-.006,0,.017-.035a.655.655,0,0,1,.153-.142,1.568,1.568,0,0,1,.31-.162l.017-.006.017-.007s4.548-1.951,9.175-3.934L20.13,8.439c1.795-.767,3.092-1.32,3.2-1.364A1.087,1.087,0,0,1,23.679,7Zm-5.4,5.377-6.174,7.264,0,0q-.014.017-.027.036a.51.51,0,0,0-.093.234s0,0,0,0l-.8,3.617c-.013-.039-.023-.053-.037-.1h0c-.255-.821-1.42-4.706-1.581-5.244ZM12.8,20.831l1.109.833-1.63,1.511Z" transform="translate(-3.001 -5.983)"/>
</symbol><symbol id="icon-viber-connection" viewBox="0 0 34.142 36.005">
  <path d="M31.219,3.509C30.326,2.686,26.712.063,18.654.028c0,0-9.5-.57-14.126,3.677C1.955,6.279,1.048,10.055.949,14.73S.731,28.167,9.176,30.544h.007l-.007,3.628s-.056,1.47.914,1.765c1.167.366,1.856-.752,2.974-1.955.612-.661,1.455-1.631,2.1-2.37a32.673,32.673,0,0,0,10.723-.788c1.167-.38,7.77-1.223,8.838-9.984,1.111-9.042-.534-14.752-3.5-17.332ZM32.2,20.18c-.907,7.313-6.258,7.777-7.242,8.093a30.229,30.229,0,0,1-9.225.788s-3.656,4.409-4.8,5.555c-.373.373-.78.338-.773-.4,0-.485.028-6.026.028-6.026h0C3.03,26.205,3.452,18.745,3.53,14.843s.816-7.1,3-9.253c3.916-3.551,11.981-3.023,11.981-3.023,6.813.028,10.076,2.081,10.835,2.77,2.51,2.152,3.79,7.3,2.855,14.843ZM22.423,14.5a.454.454,0,0,1-.907.042,2.174,2.174,0,0,0-2.292-2.384.454.454,0,0,1,.049-.907A3.057,3.057,0,0,1,22.423,14.5Zm1.427.795c.07-2.981-1.793-5.316-5.33-5.576a.455.455,0,0,1,.063-.907c4.078.3,6.251,3.1,6.173,6.5a.454.454,0,0,1-.907-.021Zm3.3.942a.454.454,0,0,1-.907.007c-.042-5.73-3.86-8.852-8.494-8.887a.454.454,0,0,1,0-.907C22.936,6.483,27.105,10.062,27.155,16.235Zm-.795,6.9v.014c-.759,1.336-2.18,2.813-3.642,2.341l-.014-.021a27.027,27.027,0,0,1-7.186-3.973,18.382,18.382,0,0,1-2.981-2.981,22.817,22.817,0,0,1-2.166-3.277A21.01,21.01,0,0,1,8.543,11.32c-.471-1.462,1-2.883,2.341-3.642H10.9a1.28,1.28,0,0,1,1.68.274s.872,1.041,1.245,1.554c.352.478.823,1.245,1.069,1.673a1.468,1.468,0,0,1-.26,1.87l-.844.675a1.237,1.237,0,0,0-.373.984s1.252,4.732,5.927,5.927a1.237,1.237,0,0,0,.984-.373L21,19.42a1.468,1.468,0,0,1,1.87-.26,18.218,18.218,0,0,1,3.22,2.313,1.256,1.256,0,0,1,.267,1.659Z" transform="translate(-0.927 -0.003)" fill="#fff"/>
</symbol><symbol id="icon-viber" viewBox="0 0 20.255 22.184">
  <path d="M13.85,3a17.169,17.169,0,0,0-1.982.124A12.459,12.459,0,0,0,8.127,4.1,6.1,6.1,0,0,0,4.444,8.658c-.168.919-.3,1.852-.381,2.79a15.09,15.09,0,0,0,.46,5.444A5.888,5.888,0,0,0,6.993,20.4a11.818,11.818,0,0,0,1.671.7.387.387,0,0,1,.139.089c.006.006.021.019.019.132-.013,1.153,0,3.383,0,3.383l0,.48h.861l.139-.136s2.187-2.1,2.978-2.971c.143-.154.217-.241.232-.251s-.009-.015.138-.019q1.557-.031,3.11-.117a12.134,12.134,0,0,0,4.1-.765,5.148,5.148,0,0,0,2.73-2.479,10.858,10.858,0,0,0,1.045-3.866A18.466,18.466,0,0,0,23.666,7.9a5.573,5.573,0,0,0-2.215-3.161,10,10,0,0,0-4.335-1.49,22.417,22.417,0,0,0-2.609-.239C14.289,3,14.07,3,13.85,3Zm.631.972a20.694,20.694,0,0,1,2.494.228A9.1,9.1,0,0,1,20.9,5.531a4.538,4.538,0,0,1,1.833,2.624,17.519,17.519,0,0,1,.456,6.341,9.857,9.857,0,0,1-.951,3.525,4.094,4.094,0,0,1-2.236,2.016,11.283,11.283,0,0,1-3.775.691q-1.537.085-3.078.115a1.227,1.227,0,0,0-.689.205,2.3,2.3,0,0,0-.371.375c-.565.618-1.692,1.7-2.306,2.3,0-.72-.009-1.59,0-2.392a1.179,1.179,0,0,0-.194-.7,1.268,1.268,0,0,0-.522-.407c-.544-.252-1.256-.445-1.565-.639A4.863,4.863,0,0,1,5.45,16.625a14.121,14.121,0,0,1-.426-5.1c.075-.9.205-1.8.369-2.7a5.02,5.02,0,0,1,3.135-3.86,11.52,11.52,0,0,1,3.459-.891A16.489,16.489,0,0,1,14.481,3.972Zm.2,2.4a5.352,5.352,0,0,0-1.159.128.483.483,0,0,0,.215.942,4.257,4.257,0,0,1,5.092,5.094.482.482,0,1,0,.94.211,5.217,5.217,0,0,0-5.088-6.375Zm-4.811.966a.917.917,0,0,0-.245.021A2.081,2.081,0,0,0,7.858,9.325a2.122,2.122,0,0,0,.081.471,21.321,21.321,0,0,0,.893,2.087,15.234,15.234,0,0,0,7.737,6.883,1.53,1.53,0,0,0,1.221.036,2.778,2.778,0,0,0,1.345-1.1c.431-.706.437-1.2-.273-1.718-.465-.343-.923-.7-1.394-1.03-.718-.509-1.494-.6-2.029.3a.807.807,0,0,1-.105.121.821.821,0,0,1-.97.217,5.542,5.542,0,0,1-3.04-2.8,1.146,1.146,0,0,1,.426-1.71,2.365,2.365,0,0,0,.2-.164.774.774,0,0,0,.205-.985A7.711,7.711,0,0,0,10.51,7.643,1,1,0,0,0,9.873,7.342Zm4.8.48a3.706,3.706,0,0,0-.631.053.482.482,0,1,0,.162.949,2.937,2.937,0,0,1,.469-.038A2.817,2.817,0,0,1,17.5,11.612a2.938,2.938,0,0,1-.038.469.482.482,0,1,0,.949.162,3.706,3.706,0,0,0,.053-.631A3.8,3.8,0,0,0,14.677,7.822Zm-.068,1.447a.482.482,0,1,0,0,.964,1.44,1.44,0,0,1,1.447,1.447.482.482,0,1,0,.964,0A2.418,2.418,0,0,0,14.609,9.269Z" transform="translate(-4 -2.999)"/>
</symbol></svg>